<?xml version="1.0" encoding="utf-8"?>
<!-- Generator: Adobe Illustrator 19.0.0, SVG Export Plug-In . SVG Version: 6.00 Build 0)  -->
<svg version="1.1" id="Calque_1" xmlns="http://www.w3.org/2000/svg" xmlns:xlink="http://www.w3.org/1999/xlink" x="0px" y="0px"
	 viewBox="-212 344.5 266 136.3" enable-background="new -212 344.5 266 136.3" xml:space="preserve">
<title>Logo - no txt</title>
<g id="Symbols">
	<g id="Logo---no-txt">
		<path id="Fill-4" fill="#FFFFFF" stroke="#FFFFFF" stroke-miterlimit="10" d="M-120.9,434.4c18.2-4.5,30.3-21,30.6-39.4
			c-1.3,16.1-14,29.1-31.9,33.6c-17.9,4.5-35.6-1.1-44.5-14.6C-157.7,430.1-139.2,439-120.9,434.4"/>
		<path id="Fill-1" fill="#FFFFFF" stroke="#FFFFFF" stroke-miterlimit="10" d="M-141.2,355.1c17.9-4.5,35.7,1.2,44.6,14.7
			c-9.1-16-27.6-24.9-45.8-20.3c-18.2,4.5-30.3,21-30.6,39.4C-171.7,372.8-159.1,359.5-141.2,355.1"/>
		<path id="Fill-6" fill="#FFFFFF" stroke="#FFFFFF" stroke-miterlimit="10" d="M-73.7,374c-2.3-0.3-7.1-0.9-8.5-1
			c-1.4-0.1-2.5,0.8-2.5,0.8s4.1,2.5,6.2,4c-0.3,0.2-0.6,0.5-0.9,0.7c-4.9,4.1-33.4,13.5-57,17.7c-37.3,6.6-66.9,5.7-68.3-2.4
			c-0.9-4.9,8.1-11.1,24.5-16.8c0-0.1,0-0.2,0-0.3c-20.1,6.4-32.1,13.9-32,20c0.2,13,34.5,13.5,72.5,5.6c19.4-4,45.3-15.2,58.7-21.6
			c7.3-3.3,28.9-8.5,34.1-17.6C-54.4,359.7-65.6,367.5-73.7,374"/>
		<polygon id="Fill-10" fill="#FFFFFF" stroke="#FFFFFF" stroke-miterlimit="10" points="-65.4,393.5 -58.6,393.5 -51.7,422.1 
			-51.6,422.1 -43.9,393.5 -37.1,393.5 -29.6,422.1 -29.4,422.1 -22.3,393.5 -15.5,393.5 -26.1,430.9 -32.9,430.9 -40.5,402.3 
			-40.6,402.3 -48.5,430.9 -55.4,430.9 		"/>
		<polygon id="Fill-11" fill="#FFFFFF" stroke="#FFFFFF" stroke-miterlimit="10" points="-9.3,393.5 17.2,393.5 17.2,399.2 
			-2.6,399.2 -2.6,409 14.8,409 14.8,414.3 -2.6,414.3 -2.6,430.9 -9.3,430.9 		"/>
		<path id="Fill-12" fill="#FFFFFF" stroke="#FFFFFF" stroke-miterlimit="10" d="M28.6,417.6c0,5.7,4.3,8,9.7,8
			c5.9,0,8.1-2.8,8.1-5.6c0-2.9-1.6-4-3.2-4.6c-2.7-1-6.2-1.7-11.4-3.1c-6.5-1.7-8.5-5.6-8.5-9.4c0-7.5,7.1-10.9,14-10.9
			c8,0,14.7,4.1,14.7,11.9h-6.7c-0.3-4.8-3.6-6.6-8.3-6.6c-3.1,0-7,1.1-7,4.8c0,2.6,1.8,4.1,4.6,4.8c0.6,0.2,9.1,2.3,11,2.9
			c5,1.5,7.5,5.6,7.5,9.5c0,8.3-7.6,11.7-15.2,11.7c-8.7,0-15.8-4.1-16-13.3H28.6z"/>
	</g>
</g>
<rect x="-212" y="446.3" fill="#FFFFFF" stroke="#FFFFFF" stroke-miterlimit="10" width="265.1" height="1.5"/>
<path fill="#FFFFFF" stroke="#FFFFFF" stroke-miterlimit="10" d="M-210.3,474.5l5.2-13.5h1.9l5.5,13.5h-2l-1.6-4.1h-5.7l-1.5,4.1
	H-210.3z M-206.4,468.9h4.6l-1.4-3.7c-0.4-1.1-0.8-2.1-1-2.8c-0.2,0.9-0.4,1.7-0.7,2.6L-206.4,468.9z"/>
<path fill="#FFFFFF" stroke="#FFFFFF" stroke-miterlimit="10" d="M-190.1,474.5v-13.5h2.7l3.2,9.6c0.3,0.9,0.5,1.6,0.6,2
	c0.2-0.5,0.4-1.2,0.7-2.2l3.2-9.4h2.4v13.5h-1.7v-11.3l-3.9,11.3h-1.6l-3.9-11.5v11.5H-190.1z"/>
<path fill="#FFFFFF" stroke="#FFFFFF" stroke-miterlimit="10" d="M-167.2,471.3l1.7,0.2c-0.3,1-0.8,1.8-1.5,2.3
	c-0.7,0.6-1.7,0.8-2.8,0.8c-1.4,0-2.6-0.4-3.4-1.3c-0.8-0.9-1.3-2.1-1.3-3.7c0-1.6,0.4-2.9,1.3-3.8c0.9-0.9,2-1.4,3.3-1.4
	c1.3,0,2.4,0.4,3.2,1.3c0.8,0.9,1.2,2.1,1.2,3.8c0,0.1,0,0.2,0,0.4h-7.3c0.1,1.1,0.4,1.9,0.9,2.5c0.5,0.6,1.2,0.9,2,0.9
	c0.6,0,1.1-0.2,1.6-0.5C-167.8,472.5-167.5,472-167.2,471.3 M-172.7,468.6h5.5c-0.1-0.8-0.3-1.4-0.6-1.9c-0.5-0.6-1.2-1-2.1-1
	c-0.8,0-1.4,0.3-1.9,0.8C-172.3,467.1-172.6,467.8-172.7,468.6"/>
<path fill="#FFFFFF" stroke="#FFFFFF" stroke-miterlimit="10" d="M-163,474.5v-9.8h1.5v1.4c0.3-0.5,0.7-0.9,1.2-1.2
	c0.5-0.3,1.1-0.4,1.7-0.4c0.7,0,1.3,0.2,1.8,0.5c0.5,0.3,0.8,0.7,1,1.3c0.8-1.1,1.8-1.7,3-1.7c1,0,1.7,0.3,2.2,0.8
	c0.5,0.5,0.8,1.4,0.8,2.5v6.7h-1.7v-6.2c0-0.7-0.1-1.1-0.2-1.4c-0.1-0.3-0.3-0.5-0.6-0.7c-0.3-0.2-0.6-0.3-1-0.3
	c-0.7,0-1.3,0.2-1.7,0.7c-0.5,0.5-0.7,1.2-0.7,2.2v5.7h-1.7v-6.4c0-0.7-0.1-1.3-0.4-1.7c-0.3-0.4-0.7-0.6-1.3-0.6
	c-0.5,0-0.9,0.1-1.3,0.4c-0.4,0.2-0.7,0.6-0.9,1.1c-0.2,0.5-0.3,1.2-0.3,2v5.1H-163z"/>
<path fill="#FFFFFF" stroke="#FFFFFF" stroke-miterlimit="10" d="M-145.4,474.5h-1.5v-13.5h1.7v4.8c0.7-0.9,1.6-1.3,2.7-1.3
	c0.6,0,1.2,0.1,1.7,0.4c0.5,0.2,1,0.6,1.3,1c0.3,0.4,0.6,1,0.8,1.6c0.2,0.6,0.3,1.3,0.3,2c0,1.7-0.4,3-1.2,3.9
	c-0.8,0.9-1.8,1.4-3,1.4c-1.2,0-2.1-0.5-2.7-1.4V474.5z M-145.4,469.5c0,1.2,0.2,2,0.5,2.5c0.5,0.9,1.2,1.3,2.1,1.3
	c0.7,0,1.4-0.3,1.9-0.9c0.5-0.6,0.8-1.6,0.8-2.8c0-1.3-0.3-2.2-0.8-2.8c-0.5-0.6-1.1-0.9-1.8-0.9c-0.7,0-1.4,0.3-1.9,0.9
	C-145.2,467.4-145.4,468.3-145.4,469.5"/>
<path fill="#FFFFFF" stroke="#FFFFFF" stroke-miterlimit="10" d="M-129.3,471.3l1.7,0.2c-0.3,1-0.8,1.8-1.5,2.3
	c-0.7,0.6-1.7,0.8-2.8,0.8c-1.4,0-2.6-0.4-3.4-1.3c-0.8-0.9-1.3-2.1-1.3-3.7c0-1.6,0.4-2.9,1.3-3.8c0.9-0.9,2-1.4,3.3-1.4
	c1.3,0,2.4,0.4,3.2,1.3c0.8,0.9,1.2,2.1,1.2,3.8c0,0.1,0,0.2,0,0.4h-7.3c0.1,1.1,0.4,1.9,0.9,2.5c0.5,0.6,1.2,0.9,2,0.9
	c0.6,0,1.1-0.2,1.6-0.5C-129.9,472.5-129.6,472-129.3,471.3 M-134.8,468.6h5.5c-0.1-0.8-0.3-1.4-0.6-1.9c-0.5-0.6-1.2-1-2.1-1
	c-0.8,0-1.4,0.3-1.9,0.8C-134.4,467.1-134.7,467.8-134.8,468.6"/>
<path fill="#FFFFFF" stroke="#FFFFFF" stroke-miterlimit="10" d="M-125.1,474.5v-9.8h1.5v1.5c0.4-0.7,0.7-1.2,1.1-1.4
	c0.3-0.2,0.7-0.3,1.1-0.3c0.6,0,1.1,0.2,1.7,0.5l-0.6,1.5c-0.4-0.2-0.8-0.4-1.2-0.4c-0.4,0-0.7,0.1-1,0.3c-0.3,0.2-0.5,0.5-0.6,0.9
	c-0.2,0.6-0.3,1.2-0.3,1.9v5.1H-125.1z"/>
<path fill="#FFFFFF" stroke="#FFFFFF" stroke-miterlimit="10" d="M-113.2,469.6c0-1.8,0.5-3.2,1.5-4c0.8-0.7,1.9-1.1,3.1-1.1
	c1.3,0,2.4,0.4,3.3,1.3c0.9,0.9,1.3,2.1,1.3,3.7c0,1.3-0.2,2.3-0.6,3c-0.4,0.7-0.9,1.3-1.7,1.7c-0.7,0.4-1.5,0.6-2.4,0.6
	c-1.4,0-2.5-0.4-3.3-1.3C-112.8,472.5-113.2,471.2-113.2,469.6 M-111.5,469.6c0,1.3,0.3,2.2,0.8,2.8c0.5,0.6,1.2,0.9,2.1,0.9
	c0.8,0,1.5-0.3,2.1-0.9c0.5-0.6,0.8-1.6,0.8-2.9c0-1.2-0.3-2.1-0.8-2.8c-0.6-0.6-1.2-0.9-2.1-0.9c-0.8,0-1.5,0.3-2.1,0.9
	C-111.3,467.4-111.5,468.3-111.5,469.6"/>
<path fill="#FFFFFF" stroke="#FFFFFF" stroke-miterlimit="10" d="M-101.5,474.5V466h-1.5v-1.3h1.5v-1c0-0.7,0.1-1.1,0.2-1.5
	c0.2-0.4,0.4-0.8,0.8-1c0.4-0.3,1-0.4,1.7-0.4c0.5,0,1,0.1,1.6,0.2l-0.2,1.5c-0.3-0.1-0.7-0.1-1-0.1c-0.5,0-0.9,0.1-1.1,0.3
	c-0.2,0.2-0.3,0.6-0.3,1.2v0.9h1.9v1.3h-1.9v8.5H-101.5z"/>
<path fill="#FFFFFF" stroke="#FFFFFF" stroke-miterlimit="10" d="M-86.8,473l0.2,1.5c-0.5,0.1-0.9,0.1-1.3,0.1
	c-0.6,0-1.1-0.1-1.4-0.3c-0.3-0.2-0.6-0.4-0.7-0.8c-0.1-0.3-0.2-1-0.2-2V466h-1.2v-1.3h1.2v-2.4l1.7-1v3.4h1.7v1.3h-1.7v5.7
	c0,0.5,0,0.8,0.1,0.9s0.2,0.2,0.3,0.3c0.1,0.1,0.3,0.1,0.6,0.1C-87.3,473-87.1,473-86.8,473"/>
<path fill="#FFFFFF" stroke="#FFFFFF" stroke-miterlimit="10" d="M-84.7,474.5v-13.5h1.7v4.9c0.8-0.9,1.8-1.3,2.9-1.3
	c0.7,0,1.4,0.1,1.9,0.4c0.5,0.3,0.9,0.7,1.1,1.2c0.2,0.5,0.3,1.2,0.3,2.2v6.2h-1.7v-6.2c0-0.8-0.2-1.4-0.5-1.8
	c-0.4-0.4-0.9-0.6-1.5-0.6c-0.5,0-1,0.1-1.4,0.4c-0.4,0.3-0.7,0.6-0.9,1c-0.2,0.4-0.3,1-0.3,1.8v5.4H-84.7z"/>
<path fill="#FFFFFF" stroke="#FFFFFF" stroke-miterlimit="10" d="M-67.1,471.3l1.7,0.2c-0.3,1-0.8,1.8-1.5,2.3
	c-0.7,0.6-1.7,0.8-2.8,0.8c-1.4,0-2.6-0.4-3.4-1.3c-0.8-0.9-1.3-2.1-1.3-3.7c0-1.6,0.4-2.9,1.3-3.8c0.9-0.9,2-1.4,3.3-1.4
	c1.3,0,2.4,0.4,3.2,1.3c0.8,0.9,1.2,2.1,1.2,3.8c0,0.1,0,0.2,0,0.4h-7.3c0.1,1.1,0.4,1.9,0.9,2.5c0.5,0.6,1.2,0.9,2,0.9
	c0.6,0,1.1-0.2,1.6-0.5C-67.7,472.5-67.4,472-67.1,471.3 M-72.6,468.6h5.5c-0.1-0.8-0.3-1.4-0.6-1.9c-0.5-0.6-1.2-1-2.1-1
	c-0.8,0-1.4,0.3-1.9,0.8C-72.2,467.1-72.5,467.8-72.6,468.6"/>
<path fill="#FFFFFF" stroke="#FFFFFF" stroke-miterlimit="10" d="M-57.5,470.1l1.7-0.1c0.1,0.7,0.3,1.2,0.6,1.7
	c0.3,0.4,0.7,0.8,1.4,1.1c0.6,0.3,1.3,0.4,2.1,0.4c0.7,0,1.3-0.1,1.8-0.3c0.5-0.2,0.9-0.5,1.2-0.8c0.3-0.4,0.4-0.7,0.4-1.2
	c0-0.4-0.1-0.8-0.4-1.1c-0.2-0.3-0.7-0.6-1.2-0.8c-0.4-0.1-1.2-0.4-2.4-0.7c-1.2-0.3-2.1-0.6-2.6-0.8c-0.6-0.3-1.1-0.8-1.4-1.3
	c-0.3-0.5-0.5-1.1-0.5-1.7c0-0.7,0.2-1.3,0.6-1.9c0.4-0.6,1-1,1.7-1.4c0.7-0.3,1.6-0.5,2.5-0.5c1,0,1.9,0.2,2.7,0.5
	c0.8,0.3,1.4,0.8,1.8,1.4c0.4,0.6,0.6,1.3,0.7,2.1l-1.7,0.1c-0.1-0.9-0.4-1.5-0.9-1.9c-0.5-0.4-1.3-0.7-2.4-0.7
	c-1.1,0-1.9,0.2-2.4,0.6c-0.5,0.4-0.7,0.9-0.7,1.4c0,0.5,0.2,0.9,0.5,1.2c0.3,0.3,1.2,0.6,2.7,1c1.5,0.3,2.5,0.6,3,0.9
	c0.8,0.4,1.4,0.8,1.7,1.4c0.4,0.6,0.6,1.2,0.6,1.9c0,0.7-0.2,1.4-0.6,2c-0.4,0.6-1,1.1-1.8,1.5c-0.8,0.4-1.6,0.5-2.6,0.5
	c-1.2,0-2.3-0.2-3.1-0.5s-1.5-0.9-1.9-1.6C-57.2,471.8-57.5,471-57.5,470.1"/>
<path fill="#FFFFFF" stroke="#FFFFFF" stroke-miterlimit="10" d="M-45.4,474.5l5.2-13.5h1.9l5.5,13.5h-2l-1.6-4.1H-42l-1.5,4.1
	H-45.4z M-41.5,468.9h4.6l-1.4-3.7c-0.4-1.1-0.8-2.1-1-2.8c-0.2,0.9-0.4,1.7-0.7,2.6L-41.5,468.9z"/>
<polygon fill="#FFFFFF" stroke="#FFFFFF" stroke-miterlimit="10" points="-29,474.5 -29,462.5 -33.4,462.5 -33.4,460.9 -22.7,460.9 
	-22.7,462.5 -27.2,462.5 -27.2,474.5 "/>
<path fill="#FFFFFF" stroke="#FFFFFF" stroke-miterlimit="10" d="M-21.2,470.1l1.7-0.1c0.1,0.7,0.3,1.2,0.6,1.7
	c0.3,0.4,0.7,0.8,1.4,1.1c0.6,0.3,1.3,0.4,2.1,0.4c0.7,0,1.3-0.1,1.8-0.3c0.5-0.2,0.9-0.5,1.2-0.8c0.3-0.4,0.4-0.7,0.4-1.2
	c0-0.4-0.1-0.8-0.4-1.1c-0.2-0.3-0.7-0.6-1.2-0.8c-0.4-0.1-1.2-0.4-2.4-0.7c-1.2-0.3-2.1-0.6-2.6-0.8c-0.6-0.3-1.1-0.8-1.4-1.3
	c-0.3-0.5-0.5-1.1-0.5-1.7c0-0.7,0.2-1.3,0.6-1.9c0.4-0.6,1-1,1.7-1.4c0.7-0.3,1.6-0.5,2.5-0.5c1,0,1.9,0.2,2.7,0.5
	c0.8,0.3,1.4,0.8,1.8,1.4c0.4,0.6,0.6,1.3,0.7,2.1l-1.7,0.1c-0.1-0.9-0.4-1.5-0.9-1.9c-0.5-0.4-1.3-0.7-2.4-0.7
	c-1.1,0-1.9,0.2-2.4,0.6c-0.5,0.4-0.7,0.9-0.7,1.4c0,0.5,0.2,0.9,0.5,1.2c0.3,0.3,1.2,0.6,2.7,1c1.5,0.3,2.5,0.6,3,0.9
	c0.8,0.4,1.4,0.8,1.7,1.4c0.4,0.6,0.6,1.2,0.6,1.9c0,0.7-0.2,1.4-0.6,2c-0.4,0.6-1,1.1-1.8,1.5c-0.8,0.4-1.6,0.5-2.6,0.5
	c-1.2,0-2.3-0.2-3.1-0.5s-1.5-0.9-1.9-1.6C-20.9,471.8-21.2,471-21.2,470.1"/>
<path fill="#FFFFFF" stroke="#FFFFFF" stroke-miterlimit="10" d="M4.5,469.2v-1.6l5.7,0v5c-0.9,0.7-1.8,1.2-2.7,1.6
	c-0.9,0.4-1.9,0.5-2.9,0.5c-1.3,0-2.5-0.3-3.6-0.9s-1.9-1.4-2.5-2.5c-0.6-1.1-0.8-2.3-0.8-3.6c0-1.3,0.3-2.5,0.8-3.7
	c0.6-1.1,1.3-2,2.4-2.5c1-0.6,2.2-0.8,3.6-0.8c1,0,1.9,0.2,2.7,0.5c0.8,0.3,1.4,0.8,1.9,1.3c0.4,0.6,0.8,1.3,1,2.2l-1.6,0.4
	c-0.2-0.7-0.5-1.2-0.8-1.6c-0.3-0.4-0.7-0.7-1.3-0.9c-0.6-0.2-1.2-0.4-1.9-0.4c-0.8,0-1.5,0.1-2.1,0.4c-0.6,0.3-1.1,0.6-1.4,1
	c-0.4,0.4-0.7,0.9-0.9,1.3c-0.3,0.8-0.5,1.7-0.5,2.7c0,1.2,0.2,2.2,0.6,3c0.4,0.8,1,1.4,1.8,1.8c0.8,0.4,1.6,0.6,2.5,0.6
	c0.8,0,1.5-0.1,2.3-0.4c0.7-0.3,1.3-0.6,1.7-1v-2.5H4.5z"/>
<path fill="#FFFFFF" stroke="#FFFFFF" stroke-miterlimit="10" d="M13.2,474.5v-9.8h1.5v1.5c0.4-0.7,0.7-1.2,1.1-1.4
	c0.3-0.2,0.7-0.3,1.1-0.3c0.6,0,1.1,0.2,1.7,0.5l-0.6,1.5c-0.4-0.2-0.8-0.4-1.2-0.4c-0.4,0-0.7,0.1-1,0.3c-0.3,0.2-0.5,0.5-0.6,0.9
	c-0.2,0.6-0.3,1.2-0.3,1.9v5.1H13.2z"/>
<path fill="#FFFFFF" stroke="#FFFFFF" stroke-miterlimit="10" d="M19.3,469.6c0-1.8,0.5-3.2,1.5-4c0.8-0.7,1.9-1.1,3.1-1.1
	c1.3,0,2.4,0.4,3.3,1.3c0.9,0.9,1.3,2.1,1.3,3.7c0,1.3-0.2,2.3-0.6,3c-0.4,0.7-0.9,1.3-1.7,1.7c-0.7,0.4-1.5,0.6-2.4,0.6
	c-1.4,0-2.5-0.4-3.3-1.3C19.7,472.5,19.3,471.2,19.3,469.6 M21,469.6c0,1.3,0.3,2.2,0.8,2.8c0.5,0.6,1.2,0.9,2.1,0.9
	c0.8,0,1.5-0.3,2.1-0.9c0.5-0.6,0.8-1.6,0.8-2.9c0-1.2-0.3-2.1-0.8-2.8c-0.6-0.6-1.2-0.9-2.1-0.9c-0.8,0-1.5,0.3-2.1,0.9
	C21.3,467.4,21,468.3,21,469.6"/>
<path fill="#FFFFFF" stroke="#FFFFFF" stroke-miterlimit="10" d="M37.3,474.5V473c-0.8,1.1-1.8,1.7-3.1,1.7c-0.6,0-1.1-0.1-1.6-0.3
	c-0.5-0.2-0.9-0.5-1.1-0.8c-0.2-0.3-0.4-0.7-0.5-1.2c-0.1-0.3-0.1-0.8-0.1-1.6v-6.1h1.7v5.4c0,0.9,0,1.5,0.1,1.8
	c0.1,0.4,0.3,0.8,0.7,1c0.3,0.2,0.8,0.4,1.3,0.4c0.5,0,1-0.1,1.4-0.4c0.4-0.3,0.7-0.6,0.9-1c0.2-0.4,0.3-1.1,0.3-1.9v-5.3h1.7v9.8
	H37.3z"/>
<path fill="#FFFFFF" stroke="#FFFFFF" stroke-miterlimit="10" d="M41.6,478.2v-13.6h1.5v1.3c0.4-0.5,0.8-0.9,1.2-1.1
	c0.4-0.2,1-0.4,1.6-0.4c0.8,0,1.6,0.2,2.2,0.6c0.6,0.4,1.1,1,1.4,1.8c0.3,0.8,0.5,1.6,0.5,2.6c0,1-0.2,1.9-0.5,2.7
	c-0.4,0.8-0.9,1.4-1.6,1.8c-0.7,0.4-1.4,0.6-2.2,0.6c-0.6,0-1.1-0.1-1.5-0.4c-0.4-0.2-0.8-0.5-1.1-0.9v4.8H41.6z M43.1,469.6
	c0,1.3,0.3,2.2,0.8,2.8s1.1,0.9,1.9,0.9c0.7,0,1.4-0.3,1.9-0.9c0.5-0.6,0.8-1.6,0.8-2.9c0-1.2-0.3-2.2-0.8-2.8
	c-0.5-0.6-1.1-0.9-1.8-0.9c-0.7,0-1.3,0.3-1.9,1S43.1,468.4,43.1,469.6"/>
<rect x="-216.1" y="271.3" fill="none" stroke="#FFFFFF" stroke-miterlimit="10" width="273.9" height="261.4"/>
</svg>
